<svg xmlns="http://www.w3.org/2000/svg" viewBox="0 0 240 120" role="img" aria-labelledby="title">
  <title id="title">Grands taxis</title>
  <rect width="240" height="120" rx="18" fill="#f7f4ee"/>
  <path d="M48 72h144l-12-30c-3-8-10-13-19-13H84c-9 0-16 5-19 13L48 72Z" fill="#c1272d"/>
  <path d="M78 39h81c4 0 8 3 10 8l6 15H64l7-16c1-4 4-7 7-7Z" fill="#dff1e7"/>
  <rect x="38" y="68" width="164" height="29" rx="10" fill="#0b633f"/>
  <circle cx="72" cy="97" r="12" fill="#1f2823"/><circle cx="72" cy="97" r="5" fill="#fff"/>
  <circle cx="170" cy="97" r="12" fill="#1f2823"/><circle cx="170" cy="97" r="5" fill="#fff"/>
  <text x="120" y="88" text-anchor="middle" font-family="Arial,sans-serif" font-size="15" font-weight="700" fill="#fff">GRAND TAXI</text>
</svg>
